<svg width="287" height="64" viewBox="0 0 287 64" fill="none" xmlns="http://www.w3.org/2000/svg">
<g clip-path="url(#clip0_3736_10288)">
<path d="M38.3906 49.0376C38.3906 41.2125 44.7288 34.869 52.5473 34.869C60.3659 34.869 66.7039 41.2125 66.7039 49.0376C66.7039 56.8627 60.3659 63.2064 52.5473 63.2064C44.7288 63.2064 38.3906 56.8627 38.3906 49.0376Z" fill="#05CD99"/>
<path d="M32.7635 0.898193C35.0433 0.898193 37.3763 1.48176 39.4441 2.70219C40.8226 3.49817 41.9894 4.50634 42.9438 5.62068L42.9967 5.67367C43.0321 5.70905 43.0673 5.74484 43.1026 5.78022C44.1631 7.05377 44.9057 8.53944 45.701 9.97222L55.987 27.6962C54.8559 27.5193 53.7068 27.4307 52.5404 27.4307C46.8143 27.4307 41.6713 29.7127 37.9068 33.4272C34.3544 36.9295 30.9078 44.3058 28.2037 49.0287L24.9693 54.6007C21.3108 61.0216 13.0396 63.1971 6.6771 59.5358C0.314556 55.8213 -1.91234 47.5961 1.79902 41.2282L21.1519 7.5842C21.5407 6.94748 21.9649 6.34619 22.4243 5.78022C22.4597 5.74484 22.4949 5.70905 22.5302 5.67367V5.62068C23.5377 4.50631 24.7043 3.49818 26.0829 2.70219C28.1507 1.4817 30.4836 0.898219 32.7635 0.898193Z" fill="#180047"/>
<path d="M105.11 15.508C108.055 15.508 110.805 16.0066 113.36 17.0035C114.906 17.6065 116.341 18.3443 117.664 19.2169C118.876 20.0157 120.606 19.5315 121.041 18.1459C121.302 17.3114 122.075 16.7435 122.948 16.7434H128.355C129.653 16.7435 130.704 17.796 130.704 19.0944V60.1615C130.704 61.4599 129.653 62.5126 128.355 62.5126H122.322C121.524 62.5126 120.83 61.9642 120.645 61.1875C120.346 59.927 118.803 59.4257 117.725 60.1436C116.333 61.0708 114.835 61.8383 113.23 62.4476C110.719 63.4009 108.012 63.8781 105.11 63.8781C100.564 63.8781 96.4708 62.8162 92.8329 60.6924C89.2385 58.5686 86.3803 55.6861 84.2582 52.0453C82.1797 48.4047 81.1406 44.2655 81.1406 39.6279C81.1406 35.0337 82.1797 30.9161 84.2582 27.2755C86.3803 23.6348 89.2385 20.7743 92.8329 18.6939C96.4708 16.5702 100.564 15.508 105.11 15.508ZM261.408 15.508C264.353 15.508 267.103 16.0066 269.658 17.0035C271.204 17.6065 272.638 18.3443 273.962 19.2169C275.174 20.0157 276.904 19.5315 277.338 18.1459C277.6 17.3114 278.373 16.7435 279.246 16.7434H284.653C285.95 16.7435 287.002 17.796 287.002 19.0944V60.1615C287.002 61.4599 285.95 62.5126 284.653 62.5126H278.619C277.821 62.5126 277.127 61.9642 276.943 61.1875C276.642 59.927 275.1 59.4257 274.023 60.1436C272.631 61.0708 271.132 61.8383 269.528 62.4476C267.016 63.4009 264.31 63.8781 261.408 63.8781C256.861 63.8781 252.768 62.8162 249.131 60.6924C245.536 58.5686 242.678 55.6861 240.556 52.0453C238.478 48.4047 237.438 44.2655 237.438 39.6279C237.438 35.0337 238.478 30.9162 240.556 27.2755C242.678 23.6348 245.536 20.7743 249.131 18.6939C252.768 16.5702 256.861 15.508 261.408 15.508ZM196.163 16.8039C197.461 16.804 198.512 17.857 198.512 19.1555V41.8344C198.512 45.1284 199.335 47.6856 200.981 49.5059C202.583 51.3264 204.813 52.2362 207.671 52.2362C210.573 52.2362 212.803 51.3049 214.362 49.441C215.965 47.5773 216.766 45.0417 216.766 41.8344V19.1555C216.766 17.857 217.818 16.8039 219.115 16.8039H226.759C228.056 16.804 229.108 17.857 229.108 19.1555V43.2645C229.108 47.382 228.22 50.9796 226.444 54.0569C224.669 57.134 222.178 59.5399 218.974 61.2735C215.726 63.0072 211.958 63.874 207.671 63.874C203.384 63.874 199.616 63.0072 196.368 61.2735C193.12 59.5399 190.609 57.134 188.833 54.0569C187.058 50.9796 186.17 47.382 186.17 43.2645V19.1555C186.17 17.857 187.222 16.8039 188.519 16.8039H196.163ZM149.27 0.225952C150.568 0.225981 151.619 1.27848 151.619 2.57695V29.4595C151.619 31.7794 154.621 32.6971 155.917 30.7735L164.627 17.8409C165.064 17.1928 165.794 16.8045 166.576 16.8045H175.013C176.918 16.8046 178.031 18.9558 176.93 20.513L165.122 37.2179C164.544 38.0353 164.547 39.1296 165.129 39.9439L178.647 58.8543C179.759 60.4103 178.648 62.5735 176.737 62.5735H167.552C166.769 62.5735 166.038 62.1839 165.602 61.5347L155.918 47.1249C154.623 45.199 151.619 46.1163 151.619 48.4374V60.2224C151.619 61.5208 150.568 62.5735 149.27 62.5735H141.562C140.264 62.5735 139.212 61.5208 139.212 60.2224V2.57695C139.212 1.27846 140.264 0.225952 141.562 0.225952H149.27ZM106.15 27.1455C103.725 27.1455 101.581 27.6874 99.7189 28.771C97.8567 29.8545 96.3839 31.3499 95.3013 33.257C94.2188 35.164 93.6776 37.3092 93.6776 39.6929C93.6776 42.1201 94.2188 44.2657 95.3013 46.1295C96.3839 47.9931 97.8567 49.4669 99.7189 50.5504C101.581 51.6771 103.725 52.2403 106.15 52.2403C108.531 52.2403 110.675 51.6991 112.581 50.6154C114.443 49.5319 115.915 48.0365 116.998 46.1295C118.081 44.2657 118.622 42.1201 118.622 39.6929C118.622 37.3092 118.08 35.164 116.998 33.257C115.915 31.3499 114.443 29.8545 112.581 28.771C110.675 27.6874 108.531 27.1455 106.15 27.1455ZM262.447 27.1455C260.022 27.1455 257.879 27.6874 256.017 28.771C254.155 29.8545 252.682 31.3499 251.599 33.257C250.517 35.164 249.975 37.3092 249.975 39.6929C249.975 42.1201 250.517 44.2657 251.599 46.1295C252.682 47.9931 254.155 49.4669 256.017 50.5504C257.878 51.6771 260.022 52.2403 262.447 52.2403C264.829 52.2403 266.973 51.6991 268.878 50.6154C270.74 49.5319 272.213 48.0365 273.296 46.1295C274.378 44.2657 274.92 42.1201 274.92 39.6929C274.92 37.3092 274.378 35.164 273.296 33.257C272.213 31.3499 270.74 29.8545 268.878 28.771C266.973 27.6874 264.829 27.1455 262.447 27.1455Z" fill="#180047"/>
</g>
<defs>
<clipPath id="clip0_3736_10288">
<rect width="287" height="64" fill="white"/>
</clipPath>
</defs>
</svg>
